<svg width="1270" height="1480" viewBox="0 0 1270 1480" fill="none" xmlns="http://www.w3.org/2000/svg">
<g clip-path="url(#clip0)">
<path d="M1270 1037C1270 1069.03 1244.26 1095 1212.5 1095C1180.74 1095 1155 1069.03 1155 1037" stroke="#44AB96" stroke-width="13" stroke-linecap="round" stroke-linejoin="round"/>
<path d="M1270 193C1230.23 193 1198 160.541 1198 120.5C1198 80.4593 1230.23 48 1270 48" stroke="#E53855" stroke-width="13" stroke-linecap="round" stroke-linejoin="round"/>
<path d="M788 41.0006L1039.74 41C1089.04 41 1129 80.8467 1129 130" stroke="#4484AB" stroke-width="13" stroke-linecap="round" stroke-linejoin="round"/>
<path d="M1270 500V331.681C1270 298.72 1243.13 272 1210 272C1176.87 272 1150 298.72 1150 331.681V357.734" stroke="#DA774A" stroke-width="13" stroke-linecap="round" stroke-linejoin="round"/>
<path fill-rule="evenodd" clip-rule="evenodd" d="M258 471C280.091 471 298 453.091 298 431C298 408.909 280.091 391 258 391C235.909 391 218 408.909 218 431C218 453.091 235.909 471 258 471Z" stroke="#44AB96" stroke-width="13" stroke-linecap="round" stroke-linejoin="round"/>
<path fill-rule="evenodd" clip-rule="evenodd" d="M368 1291C400.033 1291 426 1265.26 426 1233.5C426 1201.74 400.033 1176 368 1176C335.967 1176 310 1201.74 310 1233.5C310 1265.26 335.967 1291 368 1291Z" stroke="#E53855" stroke-width="13" stroke-linecap="round" stroke-linejoin="round"/>
<path d="M981.21 1262.46C959.864 1342.27 1006.04 1424.01 1084.35 1445.04C1162.65 1466.05 1243.44 1418.39 1264.79 1338.57C1286.14 1258.76 1239.96 1177.02 1161.65 1156" stroke="#44AB96" stroke-width="13" stroke-linecap="round" stroke-linejoin="round"/>
<path d="M1131.99 908C1131.99 941.689 1158.86 969 1192 969C1225.14 969 1252 941.689 1252 908C1252 874.311 1225.14 847 1192 847H991" stroke="#44AB96" stroke-width="13" stroke-linecap="round" stroke-linejoin="round"/>
<path d="M636 177.791C600.654 177.791 572 206.043 572 240.895C572 275.747 600.654 304 636 304C671.346 304 700 275.747 700 240.895V38" stroke="#4484AB" stroke-width="13" stroke-linecap="round" stroke-linejoin="round"/>
<path d="M759.5 600.578C791.257 600.578 817 626.191 817 657.789C817 689.386 791.257 715 759.5 715C727.743 715 702 689.386 702 657.789V444" stroke="#DA774A" stroke-width="13" stroke-linecap="round" stroke-linejoin="round"/>
<path d="M358.704 432C358.704 375.115 313.327 329 257.352 329C201.377 329 156 375.115 156 432C156 488.885 201.377 535 257.352 535H523" stroke="#FFB017" stroke-width="13" stroke-linecap="round" stroke-linejoin="round"/>
<path d="M1168.64 765C1224.63 765 1270 718.885 1270 662C1270 605.115 1224.63 559 1168.64 559H903" stroke="#44AB96" stroke-width="13" stroke-linecap="round" stroke-linejoin="round"/>
<path fill-rule="evenodd" clip-rule="evenodd" d="M777 213.5C777 160.204 819.739 117 872.462 117H970.538C1023.26 117 1066 160.204 1066 213.5V213.5C1066 266.796 1023.26 310 970.538 310H872.462C819.739 310 777 266.796 777 213.5V213.5Z" stroke="#DA774A" stroke-width="13" stroke-linecap="round" stroke-linejoin="round"/>
<path d="M498 833.5V744.166C498 718.669 518.819 698 544.5 698V698C570.181 698 591 718.669 591 744.166V922.834C591 948.331 570.181 969 544.5 969V969V969C518.819 969 498 948.331 498 922.834V901.25" stroke="#E53855" stroke-width="13" stroke-linecap="round" stroke-linejoin="round"/>
<path d="M584 355.93V363.719C584 408.057 547.959 444 503.5 444V444C459.041 444 423 408.057 423 363.719V119.281C423 74.943 459.041 39 503.5 39V39C547.959 39 584 74.943 584 119.281V121.678" stroke="#FFB017" stroke-width="13" stroke-linecap="round" stroke-linejoin="round"/>
<path d="M421 698V929.637C421 998.873 477.636 1055 547.5 1055C617.364 1055 674 998.873 674 929.637V874.909" stroke="#44AB96" stroke-width="13" stroke-linecap="round" stroke-linejoin="round"/>
<path d="M167 1090H374.802C453.888 1090 518 1154.47 518 1234C518 1313.52 453.888 1378 374.802 1378H312.288" stroke="#44AB96" stroke-width="13" stroke-linecap="round" stroke-linejoin="round"/>
<path d="M759.5 510H815.681C853.41 510 884 481.122 884 445.5C884 409.878 853.41 381 815.681 381H703.319C665.587 381 635 409.878 635 445.5" stroke="#44AB96" stroke-width="13" stroke-linecap="round" stroke-linejoin="round"/>
<path d="M1119.5 1244.84C1151.26 1244.84 1177 1270.4 1177 1301.92C1177 1333.44 1151.26 1359 1119.5 1359C1087.74 1359 1062 1333.44 1062 1301.92V930" stroke="#E53855" stroke-width="13" stroke-linecap="round" stroke-linejoin="round"/>
<path d="M689 1282C689 1223.46 735.847 1176 793.635 1176H978" stroke="#44AB96" stroke-width="13" stroke-linecap="round" stroke-linejoin="round"/>
<path d="M417 619H515.373C581.441 619 635 565.274 635 499" stroke="#4484AB" stroke-width="13" stroke-linecap="round" stroke-linejoin="round"/>
<path d="M991 932V985.755C991 1040.01 946.998 1084 892.712 1084H816" stroke="#4484AB" stroke-width="13" stroke-linecap="round" stroke-linejoin="round"/>
<path d="M1177 664H1092.99C1032.24 664 983 713.697 983 775" stroke="#DA774A" stroke-width="13" stroke-linecap="round" stroke-linejoin="round"/>
<path d="M758.5 787C758.5 794.693 758.5 891.539 758.5 939" stroke="#44AB96" stroke-width="13" stroke-linecap="round" stroke-linejoin="round"/>
<path d="M604.5 1200C604.5 1203.14 604.5 1242.64 604.5 1262" stroke="#44AB96" stroke-width="13" stroke-linecap="round" stroke-linejoin="round"/>
<path d="M909.5 625C909.5 621.41 906.59 618.5 903 618.5C899.41 618.5 896.5 621.41 896.5 625H909.5ZM788.579 990.605C784.989 990.605 782.079 993.515 782.079 997.105C782.079 1000.7 784.989 1003.61 788.579 1003.61V990.605ZM624 1123.5C620.41 1123.5 617.5 1126.41 617.5 1130C617.5 1133.59 620.41 1136.5 624 1136.5V1123.5ZM757.461 1029.94C757.461 1026.35 754.551 1023.44 750.961 1023.44C747.371 1023.44 744.461 1026.35 744.461 1029.94H757.461ZM896.5 625V767.331H909.5V625H896.5ZM896.5 767.331C896.5 786.086 881.165 801.366 862.135 801.366V814.366C888.244 814.366 909.5 793.366 909.5 767.331H896.5ZM862.135 801.366C836.023 801.366 814.77 822.384 814.77 848.417H827.77C827.77 829.658 843.108 814.366 862.135 814.366V801.366ZM814.77 848.417V856.828H827.77V848.417H814.77ZM814.77 856.828C814.77 882.86 836.023 903.879 862.135 903.879V890.879C843.108 890.879 827.77 875.586 827.77 856.828H814.77ZM862.135 903.879C881.162 903.879 896.5 919.171 896.5 937.931H909.5C909.5 911.897 888.247 890.879 862.135 890.879V903.879ZM896.5 937.931V947.242H909.5V937.931H896.5ZM896.5 947.242C896.5 971.144 876.961 990.605 852.751 990.605V1003.61C884.046 1003.61 909.5 978.418 909.5 947.242H896.5ZM852.751 990.605H826.719V1003.61H852.751V990.605ZM826.719 990.605H788.579V1003.61H826.719V990.605ZM624 1136.5H650.776V1123.5H624V1136.5ZM650.776 1136.5C709.689 1136.5 757.461 1088.8 757.461 1029.94H744.461C744.461 1081.6 702.525 1123.5 650.776 1123.5V1136.5Z" fill="#FFB017"/>
<path d="M1151 427.921V448.203C1151 476.81 1127.74 500 1099.06 500V500C1070.37 500 1047.1 476.81 1047.1 448.203V431.403C1047.1 403.014 1024.02 380 995.557 380V380C967.083 380 944 403.014 944 431.403V452.079" stroke="#E53855" stroke-width="13" stroke-linecap="round" stroke-linejoin="round"/>
<path fill-rule="evenodd" clip-rule="evenodd" d="M759 1323.97C759 1283.67 791.683 1251 832 1251V1251C872.313 1251 905 1283.67 905 1323.97V1377.03C905 1417.33 872.313 1450 832 1450V1450C791.683 1450 759 1417.33 759 1377.03V1323.97Z" stroke="#4484AB" stroke-width="13" stroke-linecap="round" stroke-linejoin="round"/>
</g>
<defs>
<clipPath id="clip0">
<rect width="1600" height="1538" fill="white" transform="translate(-330)"/>
</clipPath>
</defs>
</svg>
