<svg width="50" height="50" viewBox="0 0 50 50" fill="none" xmlns="http://www.w3.org/2000/svg">
<path d="M48.4437 6.06263C48.7356 6.35551 48.8996 6.7522 48.8996 7.16576C48.8996 7.57931 48.7356 7.976 48.4437 8.26888L45.1843 11.5314L38.9343 5.28138L42.1937 2.01888C42.4867 1.72596 42.884 1.5614 43.2983 1.5614C43.7127 1.5614 44.11 1.72596 44.403 2.01888L48.4437 6.05951V6.06263ZM42.9749 13.7376L36.7249 7.48763L15.4343 28.7814C15.2623 28.9533 15.1328 29.1631 15.0562 29.3939L12.5405 36.9376C12.4949 37.0752 12.4884 37.2227 12.5218 37.3637C12.5552 37.5047 12.6272 37.6336 12.7296 37.736C12.8321 37.8385 12.961 37.9104 13.102 37.9438C13.243 37.9772 13.3905 37.9708 13.528 37.9251L21.0718 35.4095C21.3023 35.3338 21.512 35.2054 21.6843 35.0345L42.9749 13.7408V13.7376Z" fill="#E0E0E0"/>
<path fill-rule="evenodd" clip-rule="evenodd" d="M3.125 42.1875C3.125 43.4307 3.61886 44.623 4.49794 45.5021C5.37701 46.3811 6.5693 46.875 7.8125 46.875H42.1875C43.4307 46.875 44.623 46.3811 45.5021 45.5021C46.3811 44.623 46.875 43.4307 46.875 42.1875V23.4375C46.875 23.0231 46.7104 22.6257 46.4174 22.3326C46.1243 22.0396 45.7269 21.875 45.3125 21.875C44.8981 21.875 44.5007 22.0396 44.2076 22.3326C43.9146 22.6257 43.75 23.0231 43.75 23.4375V42.1875C43.75 42.6019 43.5854 42.9993 43.2924 43.2924C42.9993 43.5854 42.6019 43.75 42.1875 43.75H7.8125C7.3981 43.75 7.00067 43.5854 6.70765 43.2924C6.41462 42.9993 6.25 42.6019 6.25 42.1875V7.8125C6.25 7.3981 6.41462 7.00067 6.70765 6.70765C7.00067 6.41462 7.3981 6.25 7.8125 6.25H28.125C28.5394 6.25 28.9368 6.08538 29.2299 5.79235C29.5229 5.49933 29.6875 5.1019 29.6875 4.6875C29.6875 4.2731 29.5229 3.87567 29.2299 3.58265C28.9368 3.28962 28.5394 3.125 28.125 3.125H7.8125C6.5693 3.125 5.37701 3.61886 4.49794 4.49794C3.61886 5.37701 3.125 6.5693 3.125 7.8125V42.1875Z" fill="#E0E0E0"/>
</svg>
