<svg width="107" height="319" viewBox="0 0 107 319" fill="none" xmlns="http://www.w3.org/2000/svg">
<path d="M106.038 7C106.038 3.41015 103.128 0.5 99.5382 0.5C95.9484 0.5 93.0382 3.41015 93.0382 7H106.038ZM7 305.059C3.41015 305.059 0.5 307.969 0.5 311.559C0.5 315.149 3.41015 318.059 7 318.059V305.059ZM93.0382 7V123.494H106.038V7H93.0382ZM93.0382 123.494C93.0382 138.257 81.1291 150.172 66.4888 150.172V163.172C88.3546 163.172 106.038 145.391 106.038 123.494H93.0382ZM66.4888 150.172C44.6199 150.172 26.9395 167.967 26.9395 189.862H39.9395C39.9395 175.095 51.8517 163.172 66.4888 163.172V150.172ZM26.9395 189.862V196.746H39.9395V189.862H26.9395ZM26.9395 196.746C26.9395 218.639 44.6198 236.436 66.4888 236.436V223.436C51.8518 223.436 39.9395 211.512 39.9395 196.746H26.9395ZM66.4888 236.436C81.126 236.436 93.0382 248.359 93.0382 263.126H106.038C106.038 241.231 88.3578 223.436 66.4888 223.436V236.436ZM93.0382 263.126V270.747H106.038V263.126H93.0382ZM93.0382 270.747C93.0382 289.723 77.728 305.059 58.8997 305.059V318.059C84.9598 318.059 106.038 296.851 106.038 270.747H93.0382ZM58.8997 305.059H37.8461V318.059H58.8997V305.059ZM37.8461 305.059H7V318.059H37.8461V305.059Z" fill="#FFB017"/>
</svg>
