<svg width="23"
     height="24"
     viewBox="0 0 23 24"
     fill="#F9255E"
     xmlns="http://www.w3.org/2000/svg">
      <path fill-rule="evenodd"
            clip-rule="evenodd"
            d="M8.63146 3H14.0262V1.25C14.0262 1.184 14.0028 1.12 13.9606 1.073C13.9183 1.026 13.8608 1 13.8014 1H8.85624C8.7969 1 8.73935 1.026 8.69709 1.073C8.65484 1.12 8.63146 1.184 8.63146 1.25V3ZM18.5218 4H4.13584V22C4.13584 22.552 4.53865 23 5.03497 23H17.6227C18.119 23 18.5218 22.552 18.5218 22V4ZM9.53058 7.5C9.53058 7.224 9.32918 7 9.08102 7C8.83286 7 8.63146 7.224 8.63146 7.5V19.5C8.63146 19.776 8.83286 20 9.08102 20C9.32918 20 9.53058 19.776 9.53058 19.5V7.5ZM14.0262 7.5C14.0262 7.224 13.8248 7 13.5766 7C13.3285 7 13.1271 7.224 13.1271 7.5V19.5C13.1271 19.776 13.3285 20 13.5766 20C13.8248 20 14.0262 19.776 14.0262 19.5V7.5ZM21.2192 3V4H19.4209V22C19.4209 23.105 18.6162 24 17.6227 24H5.03497C4.04144 24 3.23672 23.105 3.23672 22V4H1.43848V3H7.73234V1C7.73234 0.448 8.13514 0 8.63146 0H14.0262C14.5225 0 14.9253 0.448 14.9253 1V3H21.2192Z"
            fill="#F9255E" />
</svg>